[Header]
FileType HTR
DataType HTRS
FileVersion 1
NumSegments 64
NumFrames 3
DataFrameRate 24
EulerRotationOrder ZYX
CalibrationUnits mm
RotationUnits Degrees
GlobalAxisofGravity Y
BoneLengthAxis Y
ScaleFactor 1.0
[SegmentNames&Hierarchy]
Hips	GLOBAL
Spine	Hips
Spine1	Spine
Spine2	Spine1
Neck	Spine2
Head	Neck
LeftEye	Head
RightEye	Head
LeftShoulder	Spine2
LeftArm	LeftShoulder
LeftForeArm	LeftArm
LeftHand	LeftForeArm
LeftHandThumb1	LeftHand
LeftHandThumb2	LeftHandThumb1
LeftHandThumb3	LeftHandThumb2
LeftHandThumb4	LeftHandThumb3
LeftHandIndex1	LeftHand
LeftHandIndex2	LeftHandIndex1
LeftHandIndex3	LeftHandIndex2
LeftHandIndex4	LeftHandIndex3
LeftHandMiddle1	LeftHand
LeftHandMiddle2	LeftHandMiddle1
LeftHandMiddle3	LeftHandMiddle2
LeftHandMiddle4	LeftHandMiddle3
LeftHandRing1	LeftHand
LeftHandRing2	LeftHandRing1
LeftHandRing3	LeftHandRing2
LeftHandRing4	LeftHandRing3
LeftHandPinky1	LeftHand
LeftHandPinky2	LeftHandPinky1
LeftHandPinky3	LeftHandPinky2
LeftHandPinky4	LeftHandPinky3
RightShoulder	Spine2
RightArm	RightShoulder
RightForeArm	RightArm
RightHand	RightForeArm
RightHandPinky1	RightHand
RightHandPinky2	RightHandPinky1
RightHandPinky3	RightHandPinky2
RightHandPinky4	RightHandPinky3
RightHandRing1	RightHand
RightHandRing2	RightHandRing1
RightHandRing3	RightHandRing2
RightHandRing4	RightHandRing3
RightHandMiddle1	RightHand
RightHandMiddle2	RightHandMiddle1
RightHandMiddle3	RightHandMiddle2
RightHandMiddle4	RightHandMiddle3
RightHandIndex1	RightHand
RightHandIndex2	RightHandIndex1
RightHandIndex3	RightHandIndex2
RightHandIndex4	RightHandIndex3
RightHandThumb1	RightHand
RightHandThumb2	RightHandThumb1
RightHandThumb3	RightHandThumb2
RightHandThumb4	RightHandThumb3
LeftUpLeg	Hips
LeftLeg	LeftUpLeg
LeftFoot	LeftLeg
LeftToeBase	LeftFoot
RightUpLeg	Hips
RightLeg	RightUpLeg
RightFoot	RightLeg
RightToeBase	RightFoot
[BasePosition]
Hips	0	0	0	0	0	0	1
Spine	0	0	0	0	0	0	1
Spine1	0	0	0	0	0	0	1
Spine2	0	0	0	0	0	0	1
Neck	0	0	0	0	0	0	1
Head	0	0	0	0	0	0	1
LeftEye	0	0	0	0	0	0	1
RightEye	0	0	0	0	0	0	1
LeftShoulder	0	0	0	0	0	0	1
LeftArm	0	0	0	0	0	0	1
LeftForeArm	0	0	0	0	0	0	1
LeftHand	0	0	0	0	0	0	1
LeftHandThumb1	0	0	0	0	0	0	1
LeftHandThumb2	0	0	0	0	0	0	1
LeftHandThumb3	0	0	0	0	0	0	1
LeftHandThumb4	0	0	0	0	0	0	1
LeftHandIndex1	0	0	0	0	0	0	1
LeftHandIndex2	0	0	0	0	0	0	1
LeftHandIndex3	0	0	0	0	0	0	1
LeftHandIndex4	0	0	0	0	0	0	1
LeftHandMiddle1	0	0	0	0	0	0	1
LeftHandMiddle2	0	0	0	0	0	0	1
LeftHandMiddle3	0	0	0	0	0	0	1
LeftHandMiddle4	0	0	0	0	0	0	1
LeftHandRing1	0	0	0	0	0	0	1
LeftHandRing2	0	0	0	0	0	0	1
LeftHandRing3	0	0	0	0	0	0	1
LeftHandRing4	0	0	0	0	0	0	1
LeftHandPinky1	0	0	0	0	0	0	1
LeftHandPinky2	0	0	0	0	0	0	1
LeftHandPinky3	0	0	0	0	0	0	1
LeftHandPinky4	0	0	0	0	0	0	1
RightShoulder	0	0	0	0	0	0	1
RightArm	0	0	0	0	0	0	1
RightForeArm	0	0	0	0	0	0	1
RightHand	0	0	0	0	0	0	1
RightHandPinky1	0	0	0	0	0	0	1
RightHandPinky2	0	0	0	0	0	0	1
RightHandPinky3	0	0	0	0	0	0	1
RightHandPinky4	0	0	0	0	0	0	1
RightHandRing1	0	0	0	0	0	0	1
RightHandRing2	0	0	0	0	0	0	1
RightHandRing3	0	0	0	0	0	0	1
RightHandRing4	0	0	0	0	0	0	1
RightHandMiddle1	0	0	0	0	0	0	1
RightHandMiddle2	0	0	0	0	0	0	1
RightHandMiddle3	0	0	0	0	0	0	1
RightHandMiddle4	0	0	0	0	0	0	1
RightHandIndex1	0	0	0	0	0	0	1
RightHandIndex2	0	0	0	0	0	0	1
RightHandIndex3	0	0	0	0	0	0	1
RightHandIndex4	0	0	0	0	0	0	1
RightHandThumb1	0	0	0	0	0	0	1
RightHandThumb2	0	0	0	0	0	0	1
RightHandThumb3	0	0	0	0	0	0	1
RightHandThumb4	0	0	0	0	0	0	1
LeftUpLeg	0	0	0	0	0	0	1
LeftLeg	0	0	0	0	0	0	1
LeftFoot	0	0	0	0	0	0	1
LeftToeBase	0	0	0	0	0	0	1
RightUpLeg	0	0	0	0	0	0	1
RightLeg	0	0	0	0	0	0	1
RightFoot	0	0	0	0	0	0	1
RightToeBase	0	0	0	0	0	0	1
[Hips]
3	-9.780635834	1012.335083	25.51190567	-1.645320892	7.834830284	-5.46041441	1.0
4	-16.97044563	1010.47998	28.29922676	-1.960297346	11.08411789	-5.510997772	1.0
5	-24.27428818	1009.12915	26.32802963	-2.270811081	14.2939539	-5.559611797	1.0
[Spine]
3	0	101.8159943	1.315000057	1.089316726	-0.1367434263	3.080883265	1.0
4	0	101.8159943	1.315000057	1.056271791	0.4528179169	3.053275585	1.0
5	0	101.8159943	1.315000057	1.112366438	1.099038601	2.839421749	1.0
[Spine1]
3	0	100.8349991	-10.00800037	0.8325859308	1.384693265	5.64412117	1.0
4	0	100.8349991	-10.00800037	0.8911204934	2.070943594	5.457999706	1.0
5	0	100.8349991	-10.00800037	0.9938544035	2.980341911	5.175805092	1.0
[Spine2]
3	0	91	-13.73399925	0.9554930329	1.888837814	5.543070793	1.0
4	0	91	-13.73399925	1.06495738	2.566944599	5.34865427	1.0
5	0	91	-13.73399925	1.236969233	3.464409351	5.055480003	1.0
[Neck]
3	0	166.7169952	-25.16200066	0.4956683815	-2.015489578	-2.577880383	1.0
4	0	166.7169952	-25.16200066	0.2409604341	-2.54289484	-2.859194756	1.0
5	0	166.7169952	-25.16200066	0.03932406008	-2.229734898	-3.327490091	1.0
[Head]
3	0	96.17900085	16.84999847	1.179387689	-3.141210556	-7.682834625	1.0
4	0	96.17900085	16.84999847	0.8515385985	-4.574625492	-7.559640884	1.0
5	0	96.17900085	16.84999847	0.1257193089	-4.723761559	-7.654615402	1.0
[LeftEye]
3	30.6760006	64.09500122	92.83599854	0	0	0	1.0
4	30.6760006	64.09500122	92.83599854	0	0	0	1.0
5	30.6760006	64.09500122	92.83599854	0	0	0	1.0
[RightEye]
3	-30.6760006	64.09500122	92.83499908	0	0	0	1.0
4	-30.6760006	64.09500122	92.83499908	0	0	0	1.0
5	-30.6760006	64.09500122	92.83499908	0	0	0	1.0
[LeftShoulder]
3	45.70400238	109.4599991	-26.28000069	5.097955704	-12.89904022	-6.864019871	1.0
4	45.70400238	109.4599991	-26.28000069	5.191076756	-12.74316216	-7.260704517	1.0
5	45.70400238	109.4599991	-26.28000069	5.282561302	-12.76593208	-7.687937737	1.0
[LeftArm]
3	105.923996	-5.24600029	-22.32099915	-4.794486046	4.836401939	-82.92267609	1.0
4	105.923996	-5.24600029	-22.32099915	-5.984611511	4.99577713	-82.53786469	1.0
5	105.923996	-5.24600029	-22.32099915	-8.052446365	5.031884193	-82.05703735	1.0
[LeftForeArm]
3	278.414978	-0.0009999999311	0	5.740643516e-08	-14.02192688	-0.0002126138716	1.0
4	278.414978	-0.0009999999311	0	-1.180901563e-07	-14.354146	-0.0002079862752	1.0
5	278.414978	-0.0009999999311	0	-2.407005923e-06	-16.26568604	-0.0001990089077	1.0
[LeftHand]
3	283.2879944	0	0	-26.70475006	-3.790276527	-10.46273804	1.0
4	283.2879944	0	0	-26.34657669	-5.418771267	-10.03961086	1.0
5	283.2879944	0	0	-26.29945946	-7.954587936	-7.976603508	1.0
[LeftHandThumb1]
3	24.6609993	-15.75	26.8239994	17.37887383	-5.463540077	10.35289192	1.0
4	24.6609993	-15.75	26.8239994	16.99915123	-6.195189953	10.45276928	1.0
5	24.6609993	-15.75	26.8239994	16.46137619	-6.880940914	10.6922636	1.0
[LeftHandThumb2]
3	32.29800034	-18.64699936	18.64699936	-0.4929750264	33.58103943	-2.815230131	1.0
4	32.29800034	-18.64699936	18.64699936	-0.5006356239	33.88740921	-2.770610571	1.0
5	32.29800034	-18.64699936	18.64699936	-0.4851382375	33.99030304	-2.655155659	1.0
[LeftHandThumb3]
3	26.52600098	-15.31499958	15.31499958	2.095486641	9.558797836	0.00641119713	1.0
4	26.52600098	-15.31499958	15.31499958	2.095994473	9.643349648	0.1468272507	1.0
5	26.52600098	-15.31499958	15.31499958	2.087162018	9.642989159	0.6825441122	1.0
[LeftHandThumb4]
3	19.54599953	-11.28499985	11.28499985	0	0	0	1.0
4	19.54599953	-11.28499985	11.28499985	0	0	0	1.0
5	19.54599953	-11.28499985	11.28499985	0	0	0	1.0
[LeftHandIndex1]
3	91.09299469	-5.170999527	22.60099792	-0.4632133245	4.893841743	-9.661480904	1.0
4	91.09299469	-5.170999527	22.60099792	-0.5214472413	4.962553978	-10.28046322	1.0
5	91.09299469	-5.170999527	22.60099792	-0.5259004235	4.917764664	-10.17828751	1.0
[LeftHandIndex2]
3	36.76399994	0	0	-0.6230640411	2.760845423	-20.46573257	1.0
4	36.76399994	0	0	-0.6210772395	2.757156849	-20.42452049	1.0
5	36.76399994	0	0	-0.6203705668	2.755838633	-20.40981483	1.0
[LeftHandIndex3]
3	28.83100128	0	0	-0.107855916	0.7949419618	-10.06353283	1.0
4	28.83100128	0	0	-0.1071327925	0.7908683419	-10.02239704	1.0
5	28.83100128	0	0	-0.1068717688	0.7894154787	-10.00769997	1.0
[LeftHandIndex4]
3	23.92700005	0	0	0	0	0	1.0
4	23.92700005	0	0	0	0	0	1.0
5	23.92700005	0	0	0	0	0	1.0
[LeftHandMiddle1]
3	95.33399963	0	0	-1.672070026	8.863298416	-17.1109066	1.0
4	95.33399963	0	0	-1.719110847	8.884590149	-17.49912071	1.0
5	95.33399963	0	0	-1.693340063	8.699051857	-17.30252838	1.0
[LeftHandMiddle2]
3	36.98199844	0	0	-1.428843856	3.825516224	-33.44628525	1.0
4	36.98199844	0	0	-1.430592418	3.827407122	-33.47175217	1.0
5	36.98199844	0	0	-1.434934378	3.832090378	-33.53490448	1.0
[LeftHandMiddle3]
3	29.50900078	0	0	-0.1497030854	1.488515735	-12.2944479	1.0
4	29.50900078	0	0	-0.1502860337	1.490956903	-12.31967545	1.0
5	29.50900078	0	0	-0.1516946256	1.496806741	-12.38014317	1.0
[LeftHandMiddle4]
3	28.3390007	0	0	0	0	0	1.0
4	28.3390007	0	0	0	0	0	1.0
5	28.3390007	0	0	0	0	0	1.0
[LeftHandRing1]
3	91.04499817	-0.4390000105	-18.65100098	-3.161870241	11.5524435	-28.01717186	1.0
4	91.04499817	-0.4390000105	-18.65100098	-3.205902338	11.53682899	-28.35986328	1.0
5	91.04499817	-0.4390000105	-18.65100098	-3.185142517	11.46817493	-28.2273407	1.0
[LeftHandRing2]
3	31.54000092	0	0	-1.19463098	4.05186224	-40.15471268	1.0
4	31.54000092	0	0	-1.194350958	4.051502228	-40.15011978	1.0
5	31.54000092	0	0	-1.197383642	4.055376053	-40.19989777	1.0
[LeftHandRing3]
3	29.37700081	0	0	-0.09109929204	1.898705721	-19.28944588	1.0
4	29.37700081	0	0	-0.09097257257	1.898187041	-19.28407097	1.0
5	29.37700081	0	0	-0.09211865067	1.90288806	-19.33274078	1.0
[LeftHandRing4]
3	26.47500038	0	0	0	0	0	1.0
4	26.47500038	0	0	0	0	0	1.0
5	26.47500038	0	0	0	0	0	1.0
[LeftHandPinky1]
3	80.77799988	-4.887000084	-38.06099701	-5.378259182	16.27008247	-37.92559814	1.0
4	80.77799988	-4.887000084	-38.06099701	-5.42865181	16.29258728	-38.2889595	1.0
5	80.77799988	-4.887000084	-38.06099701	-5.407561302	16.17187119	-38.29340744	1.0
[LeftHandPinky2]
3	36	0	0	-1.930799484	3.804519415	-45.46570587	1.0
4	36	0	0	-1.925718427	3.800059319	-45.39788818	1.0
5	36	0	0	-1.926518917	3.800766468	-45.40856934	1.0
[LeftHandPinky3]
3	21.14200211	0	0	-0.5349231362	2.815938234	-20.33044052	1.0
4	21.14200211	0	0	-0.5320253372	2.809816122	-20.26281929	1.0
5	21.14200211	0	0	-0.5324769616	2.810779333	-20.27346802	1.0
[LeftHandPinky4]
3	19.75699997	0	0	0	0	0	1.0
4	19.75699997	0	0	0	0	0	1.0
5	19.75699997	0	0	0	0	0	1.0
[RightShoulder]
3	-45.70000076	109.4620056	-26.28000069	4.773429871	3.414583445	5.202450275	1.0
4	-45.70000076	109.4620056	-26.28000069	4.75538063	3.671224594	4.956395149	1.0
5	-45.70000076	109.4620056	-26.28000069	4.741417885	3.864157677	4.772005081	1.0
[RightArm]
3	-105.9280014	-5.248000145	-22.32099915	0.2366728783	0.2969811261	68.18333435	1.0
4	-105.9280014	-5.248000145	-22.32099915	0.2409988642	-0.4407867789	68.57405853	1.0
5	-105.9280014	-5.248000145	-22.32099915	0.143958807	-1.72383666	68.86541748	1.0
[RightForeArm]
3	-278.414978	0	0	2.62381559e-06	17.22120857	4.153872396e-06	1.0
4	-278.414978	0	0	4.961961167e-06	16.81595421	7.2808607e-06	1.0
5	-278.414978	0	0	4.891834578e-06	16.01005173	-7.056218692e-06	1.0
[RightHand]
3	-283.2879944	0	0.0009999999311	-12.49106503	-7.810540676	12.03162766	1.0
4	-283.2879944	0	0.0009999999311	-12.3400898	-8.468087196	12.13619518	1.0
5	-283.2879944	0	0.0009999999311	-12.0538702	-9.593510628	12.22900677	1.0
[RightHandPinky1]
3	-80.76699829	-4.885000229	-38.06000137	-5.203834057	-16.22029495	36.7223053	1.0
4	-80.76699829	-4.885000229	-38.06000137	-5.193454742	-16.26887131	36.62098694	1.0
5	-80.76699829	-4.885000229	-38.06000137	-5.17884016	-16.33557701	36.47820282	1.0
[RightHandPinky2]
3	-36	0	0.0009999999311	-1.944624901	-3.816178083	45.66853333	1.0
4	-36	0	0.0009999999311	-1.944883108	-3.816404819	45.67196274	1.0
5	-36	0	0.0009999999311	-1.945549488	-3.816987753	45.68086243	1.0
[RightHandPinky3]
3	-21.14200211	0	0	-0.7656793594	0.05430227891	22.12936211	1.0
4	-21.14200211	0	0	-0.7658354044	0.05399695411	22.13277817	1.0
5	-21.14200211	0	0	-0.7662377357	0.05320284143	22.14162064	1.0
[RightHandPinky4]
3	-19.75699997	0	0	0	0	0	1.0
4	-19.75699997	0	0	0	0	0	1.0
5	-19.75699997	0	0	0	0	0	1.0
[RightHandRing1]
3	-91.03599548	-0.4390000105	-18.65100098	-3.004282236	-11.58170128	26.80092239	1.0
4	-91.03599548	-0.4390000105	-18.65100098	-2.992754221	-11.5980444	26.70611382	1.0
5	-91.03599548	-0.4390000105	-18.65100098	-2.973639965	-11.61880016	26.55109406	1.0
[RightHandRing2]
3	-31.54000092	0	0	-1.19811368	-4.056042671	40.21503067	1.0
4	-31.54000092	0	0	-1.198357582	-4.056355476	40.21904755	1.0
5	-31.54000092	0	0	-1.198004723	-4.055908203	40.21325684	1.0
[RightHandRing3]
3	-29.37700081	0	0	-0.1386171877	0.088639386	17.82977867	1.0
4	-29.37700081	0	0	-0.1387150288	0.0881839022	17.83445549	1.0
5	-29.37700081	0	0	-0.1386120617	0.08865708858	17.82961273	1.0
[RightHandRing4]
3	-26.47500038	0	0	0	0	0	1.0
4	-26.47500038	0	0	0	0	0	1.0
5	-26.47500038	0	0	0	0	0	1.0
[RightHandMiddle1]
3	-95.32500458	0	0	-1.493424058	-8.673905373	15.64481258	1.0
4	-95.32500458	0	0	-1.47720468	-8.67099762	15.50914478	1.0
5	-95.32500458	0	0	-1.452025414	-8.66711998	15.29791737	1.0
[RightHandMiddle2]
3	-36.98199844	0	0	-1.426172495	-3.82232523	33.40935135	1.0
4	-36.98199844	0	0	-1.425738692	-3.82185626	33.40303421	1.0
5	-36.98199844	0	0	-1.424789071	-3.820828915	33.38912582	1.0
[RightHandMiddle3]
3	-29.50900078	0	0	-0.2532231212	-1.677474499	15.89126968	1.0
4	-29.50900078	0	0	-0.2530455291	-1.676893473	15.88516903	1.0
5	-29.50900078	0	0	-0.25265342	-1.675604939	15.87163734	1.0
[RightHandMiddle4]
3	-28.3390007	0	0.0009999999311	0	0	0	1.0
4	-28.3390007	0	0.0009999999311	0	0	0	1.0
5	-28.3390007	0	0.0009999999311	0	0	0	1.0
[RightHandIndex1]
3	-91.08300018	-5.167999744	22.60099792	-0.2697169185	-4.692470074	7.631247044	1.0
4	-91.08300018	-5.167999744	22.60099792	-0.2506063879	-4.710712433	7.509390831	1.0
5	-91.08300018	-5.167999744	22.60099792	-0.2182962	-4.755306244	7.324659348	1.0
[RightHandIndex2]
3	-36.76399994	0	0	-0.6275300384	-2.768948078	20.55943489	1.0
4	-36.76399994	0	0	-0.6270310283	-2.768022776	20.54908943	1.0
5	-36.76399994	0	0	-0.6258504987	-2.765837669	20.52461052	1.0
[RightHandIndex3]
3	-28.83100128	0	0	-0.2381797582	-0.1561377198	13.83103371	1.0
4	-28.83100128	0	0	-0.2379313111	-0.155129686	13.82071495	1.0
5	-28.83100128	0	0	-0.2373436987	-0.1527410001	13.7962904	1.0
[RightHandIndex4]
3	-23.92700005	0	0	0	0	0	1.0
4	-23.92700005	0	0	0	0	0	1.0
5	-23.92700005	0	0	0	0	0	1.0
[RightHandThumb1]
3	-24.64799881	-15.72700024	26.82600021	18.26996231	3.72502923	-10.18630505	1.0
4	-24.64799881	-15.72700024	26.82600021	18.37916946	3.638883829	-10.15299702	1.0
5	-24.64799881	-15.72700024	26.82600021	18.56814766	3.533993006	-10.06321335	1.0
[RightHandThumb2]
3	-32.29800034	-18.64699936	18.64699936	-0.3978511095	-32.62583542	2.7551682	1.0
4	-32.29800034	-18.64699936	18.64699936	-0.3631828129	-32.53795242	2.694157362	1.0
5	-32.29800034	-18.64699936	18.64699936	-0.3243346214	-32.40087509	2.594315052	1.0
[RightHandThumb3]
3	-26.52600098	-15.31399918	15.31399918	1.87752521	-8.500948906	0.8400274515	1.0
4	-26.52600098	-15.31399918	15.31399918	1.883577704	-8.520908356	0.8454019427	1.0
5	-26.52600098	-15.31399918	15.31399918	1.891565084	-8.547235489	0.8524793983	1.0
[RightHandThumb4]
3	-19.54599953	-11.28499985	11.28499985	0	0	0	1.0
4	-19.54599953	-11.28499985	11.28499985	0	0	0	1.0
5	-19.54599953	-11.28499985	11.28499985	0	0	0	1.0
[LeftUpLeg]
3	82.07800293	-67.51699829	-15.99599934	-17.93814468	14.87049294	12.19883633	1.0
4	82.07800293	-67.51699829	-15.99599934	-18.72363091	14.66363525	12.29399681	1.0
5	82.07800293	-67.51699829	-15.99599934	-19.56378937	14.18529415	12.196208	1.0
[LeftLeg]
3	0	-443.7049866	2.845999956	23.30303192	4.213991165	4.211262703	1.0
4	0	-443.7049866	2.845999956	23.4453373	2.471024752	3.42648077	1.0
5	0	-443.7049866	2.845999956	22.79502106	0.982570529	2.818702936	1.0
[LeftFoot]
3	0	-444.2789917	-29.8219986	-1.858988047	0.571410954	-8.826845169	1.0
4	0	-444.2789917	-29.8219986	-1.546205044	-0.396579355	-8.715928078	1.0
5	0	-444.2789917	-29.8219986	-0.3443271816	-1.607921124	-8.634404182	1.0
[LeftToeBase]
3	0	-87.28699493	107.1060028	-0.6145526767	1.487046688e-06	2.011256584e-08	1.0
4	0	-87.28699493	107.1060028	-0.6018416882	4.261863523e-06	-1.20475886e-06	1.0
5	0	-87.28699493	107.1060028	0.01779018342	7.407822068e-06	-9.816353668e-07	1.0
[RightUpLeg]
3	-82.07800293	-67.51699829	-15.99599934	-1.978463769	-6.950113297	11.64196205	1.0
4	-82.07800293	-67.51699829	-15.99599934	-1.939435482	-7.864419937	12.18343925	1.0
5	-82.07800293	-67.51699829	-15.99599934	-2.361346006	-8.191570282	12.90450954	1.0
[RightLeg]
3	0	-443.7049866	2.861999989	12.07855701	-9.170548439	2.178849459	1.0
4	0	-443.7049866	2.861999989	12.03071117	-10.49026394	2.180268049	1.0
5	0	-443.7049866	2.861999989	11.94892406	-10.73437691	2.214873314	1.0
[RightFoot]
3	0	-444.2770081	-29.83799934	-11.24211121	-1.292833567	-8.574684143	1.0
4	0	-444.2770081	-29.83799934	-11.66396141	-2.427515745	-8.902627945	1.0
5	0	-444.2770081	-29.83799934	-11.49612808	-5.143949986	-9.169698715	1.0
[RightToeBase]
3	0	-87.28699493	107.1060028	-0.5214307904	1.827595156e-06	-2.297753326e-06	1.0
4	0	-87.28699493	107.1060028	-0.5213632584	3.842250862e-06	-2.164082844e-06	1.0
5	0	-87.28699493	107.1060028	-0.5215548277	2.074016038e-06	-1.026436394e-06	1.0
[EndOfFile]
